<?xml version="1.0" encoding="utf-8"?>
<svg viewBox="383.65 252.706 74.695 66.858" width="26.347mm" height="23.583mm" xmlns="http://www.w3.org/2000/svg">
  <g opacity="1">
    <path d="M453.871 285.013L458.345 308.813L432.859 283.066L442.382 273.747L453.871 285.013Z" fill="#44d1fd" fill-rule="nonzero" opacity="1" stroke="none"/>
    <path d="M444.603 264.164L432.859 275.898L432.859 265.933L436.75 261.813L432.859 258.182L432.859 252.706L444.603 264.164Z" fill="#44d1fd" fill-rule="nonzero" opacity="1" stroke="none"/>
    <path d="M388.124 285.013L383.65 308.813L409.136 283.066L399.613 273.747L388.124 285.013Z" fill="#44d1fd" fill-rule="nonzero" opacity="1" stroke="none"/>
    <path d="M397.392 264.164L409.136 275.898L409.136 273.958L409.136 265.933L405.245 261.813L409.136 258.182L409.136 252.706L397.392 264.164Z" fill="#44d1fd" fill-rule="nonzero" opacity="1" stroke="none"/>
    <g opacity="1">
      <path d="M413.004 269.21L421.55 277.531L429.08 269.21L429.113 286.187L429.165 312.006L421.063 319.564L412.92 311.879L412.97 286.34L413.004 269.21Z" fill="#1269a9" fill-rule="nonzero" opacity="1" stroke="none"/>
      <path d="M421.39 253.093L430.166 262.217L421.39 271.711L411.919 262.217L421.39 253.093Z" fill="#1269a9" fill-rule="nonzero" opacity="1" stroke="none"/>
    </g>
  </g>
</svg>