<?xml version="1.0" encoding="utf-8"?>
<svg viewBox="346.02 252.706 149.955 89.938" width="52.894mm" height="31.724mm" xmlns="http://www.w3.org/2000/svg">
  <g opacity="1">
    <path d="M453.871 285.013L458.345 308.813L432.859 283.066L442.382 273.747L453.871 285.013Z" fill="#44d1fd" fill-rule="nonzero" opacity="1" stroke="none"/>
    <path d="M444.603 264.164L432.859 275.898L432.859 265.933L436.75 261.813L432.859 258.182L432.859 252.706L444.603 264.164Z" fill="#44d1fd" fill-rule="nonzero" opacity="1" stroke="none"/>
    <path d="M388.124 285.013L383.65 308.813L409.136 283.066L399.613 273.747L388.124 285.013Z" fill="#44d1fd" fill-rule="nonzero" opacity="1" stroke="none"/>
    <path d="M397.392 264.164L409.136 275.898L409.136 273.958L409.136 265.933L405.245 261.813L409.136 258.182L409.136 252.706L397.392 264.164Z" fill="#44d1fd" fill-rule="nonzero" opacity="1" stroke="none"/>
    <g opacity="1">
      <path d="M413.004 269.21L421.55 277.531L429.08 269.21L429.113 286.187L429.165 312.006L421.063 319.564L412.92 311.879L412.97 286.34L413.004 269.21Z" fill="#1269a9" fill-rule="nonzero" opacity="1" stroke="none"/>
      <path d="M421.39 253.093L430.166 262.217L421.39 271.711L411.919 262.217L421.39 253.093Z" fill="#1269a9" fill-rule="nonzero" opacity="1" stroke="none"/>
    </g>
  </g>
  <g opacity="1">
    <g opacity="1">
      <g opacity="1">
        <path d="M352.054 342.644C355.827 342.644 358.087 340.819 358.087 337.948L358.087 337.937C358.087 335.584 356.677 334.309 353.547 333.687L351.961 333.365C350.24 333.023 349.473 332.474 349.473 331.531L349.473 331.52C349.473 330.452 350.437 329.716 352.044 329.706C353.588 329.706 354.666 330.421 354.822 331.593L354.832 331.717L357.787 331.717L357.776 331.52C357.631 328.897 355.506 327.166 352.044 327.166C348.726 327.166 346.342 328.97 346.342 331.707L346.342 331.717C346.342 333.967 347.835 335.377 350.789 335.968L352.365 336.279C354.221 336.662 354.957 337.17 354.957 338.186L354.957 338.196C354.957 339.337 353.868 340.093 352.137 340.093C350.426 340.093 349.193 339.368 348.996 338.207L348.975 338.093L346.02 338.093L346.031 338.259C346.207 341.016 348.498 342.644 352.054 342.644Z" fill="#1269a9" fill-rule="nonzero" opacity="1" stroke="none"/>
        <path d="M359.995 342.384L363.126 342.384L363.126 337.802L364.525 336.071L368.806 342.384L372.549 342.384L366.806 334.029L372.165 327.425L368.682 327.425L363.198 334.267L363.126 334.267L363.126 327.425L359.995 327.425L359.995 342.384Z" fill="#1269a9" fill-rule="nonzero" opacity="1" stroke="none"/>
        <path d="M373.865 342.384L383.776 342.384L383.776 339.803L376.996 339.803L376.996 336.04L383.392 336.04L383.392 333.594L376.996 333.594L376.996 330.007L383.776 330.007L383.776 327.425L373.865 327.425L373.865 342.384Z" fill="#1269a9" fill-rule="nonzero" opacity="1" stroke="none"/>
        <path d="M386.036 342.384L395.708 342.384L395.708 339.803L389.167 339.803L389.167 327.425L386.036 327.425L386.036 342.384Z" fill="#1269a9" fill-rule="nonzero" opacity="1" stroke="none"/>
        <path d="M397.564 342.384L407.474 342.384L407.474 339.803L400.694 339.803L400.694 336.04L407.091 336.04L407.091 333.594L400.694 333.594L400.694 330.007L407.474 330.007L407.474 327.425L397.564 327.425L397.564 342.384Z" fill="#1269a9" fill-rule="nonzero" opacity="1" stroke="none"/>
        <path d="M413.311 342.384L416.441 342.384L416.441 330.007L420.775 330.007L420.775 327.425L408.988 327.425L408.988 330.007L413.311 330.007L413.311 342.384Z" fill="#1269a9" fill-rule="nonzero" opacity="1" stroke="none"/>
        <path d="M428.425 342.644C432.873 342.644 435.64 339.668 435.64 334.91L435.64 334.889C435.64 330.141 432.862 327.166 428.425 327.166C423.999 327.166 421.21 330.131 421.21 334.889L421.21 334.91C421.21 339.668 423.978 342.644 428.425 342.644ZM428.425 339.99C425.968 339.99 424.403 338.041 424.403 334.91L424.403 334.889C424.403 331.759 425.979 329.82 428.425 329.82C430.882 329.82 432.447 331.769 432.447 334.889L432.447 334.91C432.447 338.01 430.913 339.99 428.425 339.99Z" fill="#1269a9" fill-rule="nonzero" opacity="1" stroke="none"/>
        <path d="M437.652 342.384L440.772 342.384L440.772 332.588L440.834 332.588L447.614 342.384L450.33 342.384L450.33 327.425L447.21 327.425L447.21 337.149L447.147 337.149L440.388 327.425L437.652 327.425L437.652 342.384Z" fill="#1269a9" fill-rule="nonzero" opacity="1" stroke="none"/>
        <path d="M452.818 342.384L455.949 342.384L455.949 327.425L452.818 327.425L452.818 342.384Z" fill="#1269a9" fill-rule="nonzero" opacity="1" stroke="none"/>
        <path d="M458.115 342.384L469.664 342.384L469.664 339.803L461.879 339.803L461.879 339.741L469.457 329.457L469.457 327.425L458.292 327.425L458.292 330.007L465.725 330.007L465.725 330.069L458.115 340.342L458.115 342.384Z" fill="#1269a9" fill-rule="nonzero" opacity="1" stroke="none"/>
        <path d="M471.831 342.384L481.741 342.384L481.741 339.803L474.961 339.803L474.961 336.04L481.357 336.04L481.357 333.594L474.961 333.594L474.961 330.007L481.741 330.007L481.741 327.425L471.831 327.425L471.831 342.384Z" fill="#1269a9" fill-rule="nonzero" opacity="1" stroke="none"/>
        <path d="M484.001 342.384L487.132 342.384L487.132 336.963L489.64 336.963L492.429 342.384L495.975 342.384L492.823 336.496C494.482 335.843 495.529 334.205 495.529 332.236L495.529 332.215C495.529 329.208 493.538 327.425 490.18 327.425L484.001 327.425L484.001 342.384ZM487.132 334.589L487.132 329.872L489.796 329.872C491.341 329.872 492.325 330.784 492.325 332.215L492.325 332.236C492.325 333.708 491.392 334.589 489.837 334.589L487.132 334.589Z" fill="#1269a9" fill-rule="nonzero" opacity="1" stroke="none"/>
      </g>
    </g>
  </g>
</svg>